<?xml version="1.0" encoding="UTF-8" standalone="no" ?>
<!DOCTYPE svg PUBLIC "-//W3C//DTD SVG 1.1//EN" "http://www.w3.org/Graphics/SVG/1.1/DTD/svg11.dtd">
<svg xmlns="http://www.w3.org/2000/svg" xmlns:xlink="http://www.w3.org/1999/xlink" version="1.1" width="1080" height="1080" viewBox="0 0 1080 1080" xml:space="preserve">
<desc>Created with Fabric.js 6.5.3</desc>
<defs>
</defs>
<g transform="matrix(1.2624 0 0 1.2624 539.7827 543.3318)"  >
<g style=""   >
		<g transform="matrix(0.5 0 0 0.5 0.7121 -100.7936)"  >
<path style="stroke: none; stroke-width: 1; stroke-dasharray: none; stroke-linecap: butt; stroke-dashoffset: 0; stroke-linejoin: miter; stroke-miterlimit: 4; fill: rgb(0,0,0); fill-rule: nonzero; opacity: 1;"  transform=" translate(-1023.6188, -849.3125)" d="M 1183.42 359.746 C 1220.35 343.343 1262.69 324.993 1302.26 312.461 C 1389.58 284.807 1501.29 257.447 1593.11 276.257 C 1624.96 282.783 1659.07 303.539 1675.2 331.78 C 1700.53 376.124 1693.51 422.996 1681.91 469.512 C 1672.85 468.582 1665.4 466.058 1656.72 463.453 C 1662.75 429.483 1671.13 393.12 1657.95 359.751 C 1648.96 336.994 1631.35 320.895 1609.12 311.228 C 1508.04 267.251 1320.43 334.092 1223.23 372.925 C 1232.65 378.519 1245.53 383.566 1255.66 388.434 C 1377.29 446.889 1463.82 544.507 1514.71 669.682 C 1504.15 685.251 1484.76 707.773 1472.42 722.691 C 1449.14 750.829 1421.87 783.253 1395.62 808.545 C 1392.96 799.142 1390.96 786.056 1388.62 776.031 C 1383.66 754.484 1376.65 733.459 1367.7 713.242 C 1325.83 619.43 1252.01 546.162 1155.68 509.357 C 1064.64 474.632 963.512 477.582 874.646 517.556 C 784.598 557.913 710.687 638.573 675.639 730.591 C 639.026 826.84 642.19 933.698 684.434 1027.61 C 729.667 1127.77 802.407 1197.81 905.324 1236.46 C 950.183 1210.18 993.999 1182.17 1036.67 1152.48 C 1049.73 1143.54 1062.18 1133.84 1075.27 1125.1 C 1065.31 1110.97 1036.86 1083.89 1023.6 1068.79 C 1061.52 1069.28 1109.66 1067.42 1146.13 1069.68 C 1168.87 1052.8 1194.99 1029.57 1216.71 1010.71 C 1244.59 986.947 1271.99 962.624 1298.89 937.753 C 1305.38 932.466 1312.24 925.905 1318.28 920.088 C 1370.63 869.659 1425.11 820.03 1472 764.407 C 1510.87 718.308 1544.88 668.082 1580.37 619.451 C 1587.28 623.898 1594.29 628.185 1601.4 632.31 C 1595.97 643.637 1582.63 662.828 1575.22 673.628 C 1562.15 693.073 1548.53 712.138 1534.37 730.801 C 1550.63 785.345 1555.43 893.312 1543.53 948.915 C 1555.83 969.478 1572.2 990.622 1584.99 1011.94 C 1623.29 1075.82 1662 1150.34 1673.03 1224.8 C 1679.01 1265.2 1674.72 1314.38 1648.8 1347.01 C 1620.94 1382.08 1588.91 1390.75 1547.15 1396.43 C 1557.39 1406.8 1567.08 1416.25 1575.86 1427.97 C 1529.86 1430.23 1481.13 1426.97 1434.87 1428.35 C 1414.49 1428.96 1390.93 1428.86 1370.61 1427.93 C 1340.78 1399.73 1308.97 1360.81 1278.87 1334.25 C 1249.73 1349.05 1233.46 1358.04 1201.56 1370.44 C 1104.4 1408.21 992.045 1409.42 891.634 1384.52 C 866.378 1378.25 825.258 1361.28 801.723 1350.85 C 822.975 1337.41 864.166 1320.31 888.768 1306.82 C 913.693 1293.15 954.235 1266.37 977.694 1255.9 C 984.833 1257.23 997.03 1257.98 1004.51 1258.45 C 1063.97 1262.15 1117.81 1250.51 1171.74 1226.67 C 1144.72 1198.37 1123.18 1171.78 1093.53 1144.23 C 1067.39 1166.01 1032.19 1189.8 1003.87 1208.81 C 889.928 1285.29 779.081 1335.77 650.69 1381.04 C 648.846 1396.8 642.732 1410.17 628.962 1419.1 C 617.747 1426.43 603.993 1428.77 590.983 1425.58 C 573.961 1421.28 565.218 1410.9 556.842 1396.73 C 518.69 1400.44 455.271 1394.42 424.882 1371.01 C 296.361 1272.01 435.536 1044.29 504.6 951.006 C 497.157 877.977 496.149 803.847 514.894 732.25 C 450.849 652.524 362.572 517.578 355.286 413.757 C 352.877 379.422 359.798 343.119 383.059 316.587 C 412.947 282.496 458.543 273.502 501.725 270.433 C 590.198 264.837 711.83 299.315 793.722 331.069 C 816.111 339.751 842.661 352.21 864.181 359.402 L 865.359 359.786 C 878.091 355.954 894.668 352.585 907.908 349.656 C 1007.1 327.713 1086.26 336.555 1183.42 359.746 Z M 524.721 698.818 C 538.67 656.912 556.655 615.936 580.376 578.569 C 629.925 502.565 691.572 443.576 771.273 399.581 C 785.692 391.448 800.751 384.505 816.3 378.822 C 818.852 377.88 824.502 376.521 824.87 374.684 C 818.706 370.545 792.443 360.506 783.86 357.048 C 707.338 326.216 590.181 294.041 507.177 297.468 C 434.057 301.879 375.186 327.999 382.666 412.379 C 390.211 497.474 441.745 577.742 487.341 647.479 C 495.502 659.69 515.449 689.09 524.721 698.818 Z M 553.908 1369.84 C 562.374 1339.47 580.12 1325.48 612.066 1328.52 C 629.721 1332.9 635.376 1340.1 647.342 1353.05 C 677.016 1344.79 714.161 1330.4 742.823 1318.91 C 724.722 1305.05 706.314 1291.72 689.042 1276.86 C 624.35 1222.05 573.569 1152.69 540.865 1074.47 C 533.795 1057.65 528.358 1040.76 522.822 1023.51 C 520.496 1016.26 514.068 992.523 511.499 987.737 C 460.815 1064.4 385.711 1189.55 401.564 1287.66 C 405.425 1311.55 421.212 1335.35 441.836 1348.47 C 481.769 1373.87 510.682 1370 553.908 1369.84 Z M 1517.71 1366.36 C 1519.42 1367.9 1521.39 1369.79 1523.18 1371.18 C 1600.79 1367.56 1654.9 1332.99 1648.18 1248.78 C 1641.78 1168.64 1602.43 1096.1 1562.27 1028.19 C 1558.48 1021.86 1541.33 993.367 1536.38 989.428 C 1506.5 1097.06 1471.26 1159.33 1397.49 1242.87 C 1426.56 1271.75 1454.05 1301.03 1482.51 1330.41 C 1491.2 1339.37 1509.07 1358.9 1517.71 1366.36 Z M 1292.29 1139.69 C 1353.91 1068.03 1396.55 981.579 1399.1 885.814 C 1399.13 884.624 1398.88 884.841 1397.91 883.77 L 1397.18 883.57 C 1368.78 909.29 1333.8 939.856 1309.55 970.06 C 1306.73 973.579 1304.14 987.366 1301.72 991.91 C 1294.53 1005.18 1272.19 1066.51 1251.14 1045.75 C 1243.49 1038.2 1258.34 1015.43 1263.61 1007.25 C 1246.22 1024.1 1211.97 1051.66 1192.06 1068.38 C 1200.36 1068.82 1206.95 1069.01 1215.25 1068.85 C 1222.33 1068.86 1226.45 1073.29 1231.35 1078 C 1252.16 1098.01 1271.84 1119.32 1292.29 1139.69 Z" stroke-linecap="round" />
</g>
		<g transform="matrix(0.5 0 0 0.5 -276.0826 324.4395)"  >
<path style="stroke: none; stroke-width: 1; stroke-dasharray: none; stroke-linecap: butt; stroke-dashoffset: 0; stroke-linejoin: miter; stroke-miterlimit: 4; fill: rgb(0,0,0); fill-rule: nonzero; opacity: 1;"  transform=" translate(-470.0295, -1699.7787)" d="M 449.553 1568.36 C 461.316 1566.18 484.25 1569.02 496.28 1571.97 C 525.688 1579.18 550.767 1594.69 566.942 1620.54 C 582.165 1645.26 586.885 1675.05 580.054 1703.27 C 573.87 1729.05 556.598 1751.96 534.468 1766.26 C 525.89 1771.8 515.9 1776.4 506.805 1782.02 C 533.579 1801.4 549.509 1795.91 574.999 1779.34 C 583.018 1786.94 590.989 1796.63 598.254 1805.09 C 591.177 1812.76 582.823 1819.15 573.564 1823.96 C 537.897 1839.66 499.449 1831.23 469.078 1807.78 C 461.65 1802.04 449.203 1790.86 441.058 1787.59 C 420.046 1779.16 403.436 1777.74 384.773 1763.37 C 361.698 1745.71 346.609 1719.58 342.843 1690.76 C 333.917 1620.92 383.66 1576.12 449.553 1568.36 Z M 473.548 1743.55 C 510.299 1737.22 534.945 1702.27 528.577 1665.53 C 522.209 1628.78 487.242 1604.17 450.503 1610.57 C 413.812 1616.97 389.239 1651.88 395.599 1688.57 C 401.958 1725.27 436.846 1749.88 473.548 1743.55 Z" stroke-linecap="round" />
</g>
		<g transform="matrix(0.5 0 0 0.5 -14.3283 313.2003)"  >
<path style="stroke: none; stroke-width: 1; stroke-dasharray: none; stroke-linecap: butt; stroke-dashoffset: 0; stroke-linejoin: miter; stroke-miterlimit: 4; fill: rgb(0,0,0); fill-rule: nonzero; opacity: 1;"  transform=" translate(-993.538, -1677.3004)" d="M 997.928 1571.52 C 1005.02 1571.6 1012.11 1571.79 1019.19 1572.08 C 1027.67 1585.71 1035.5 1603.71 1042.15 1618.54 C 1066.96 1673.84 1094.26 1727.83 1120.42 1782.48 C 1102.16 1782.98 1083.88 1783.09 1065.62 1782.82 C 1058.17 1769.53 1050.9 1752.78 1044.46 1738.76 C 1031.45 1737.38 1006.43 1738.09 992.5 1738.1 C 975.74 1738.08 956.413 1737.61 939.872 1738.56 C 933.163 1749.35 926.725 1769.33 919.223 1782.48 C 901.707 1783.03 884.18 1783.2 866.656 1783 C 873.092 1763.62 889.93 1730.35 899.019 1710.95 L 965.09 1571.82 L 997.928 1571.52 Z M 956.348 1699.88 L 996.25 1700.12 C 1003.98 1700.19 1021.4 1699.94 1028.51 1700.64 C 1015.92 1674.55 1003.85 1648.22 992.312 1621.66 C 983.518 1636.74 963.629 1682.62 956.348 1699.88 Z" stroke-linecap="round" />
</g>
		<g transform="matrix(0.5 0 0 0.5 230.5502 313.2606)"  >
<path style="stroke: none; stroke-width: 1; stroke-dasharray: none; stroke-linecap: butt; stroke-dashoffset: 0; stroke-linejoin: miter; stroke-miterlimit: 4; fill: rgb(0,0,0); fill-rule: nonzero; opacity: 1;"  transform=" translate(-1483.295, -1677.4209)" d="M 1456.1 1572.13 C 1473.83 1571.84 1492.08 1572 1509.86 1571.94 C 1541.06 1640.56 1581.41 1714.15 1609.99 1782.56 C 1591.59 1782.86 1573.19 1782.96 1554.8 1782.87 L 1535.24 1738.69 C 1527.53 1737.87 1517.66 1738.11 1509.75 1738.08 L 1428.31 1737.88 C 1422.65 1752.07 1415.79 1769.39 1409.05 1782.89 C 1391.57 1782.62 1374.09 1782.47 1356.6 1782.44 C 1371.11 1746.8 1390.32 1710.11 1406.6 1674.92 C 1417.53 1651.05 1428.7 1627.3 1440.11 1603.66 C 1443.59 1596.37 1452.07 1577.43 1456.1 1572.13 Z M 1444.9 1700.54 C 1457.18 1700.78 1469.47 1700.81 1481.75 1700.65 L 1519.35 1700.34 C 1511.05 1683.99 1503.77 1667.88 1496.12 1651.28 C 1493 1644.49 1485.32 1627.09 1481.2 1621.82 C 1470.92 1646.25 1453.69 1677.2 1444.9 1700.54 Z" stroke-linecap="round" />
</g>
		<g transform="matrix(0.5 0 0 0.5 -143.8454 314.2007)"  >
<path style="stroke: none; stroke-width: 1; stroke-dasharray: none; stroke-linecap: butt; stroke-dashoffset: 0; stroke-linejoin: miter; stroke-miterlimit: 4; fill: rgb(0,0,0); fill-rule: nonzero; opacity: 1;"  transform=" translate(-734.5039, -1679.3011)" d="M 634.171 1571.1 C 647.072 1572.56 671.047 1572.04 684.825 1572.11 C 684.509 1576 684.293 1579.91 684.178 1583.81 C 683.689 1602.26 683.835 1621.4 684.022 1639.98 C 684.417 1679.33 675.759 1742.75 732.964 1743.97 C 790.192 1745.2 784.904 1691 785.072 1650.87 C 785.277 1624.62 785.233 1598.36 784.942 1572.1 C 801.533 1571.88 818.377 1572 834.99 1571.97 C 834.312 1585.26 834.545 1601.26 834.389 1614.76 C 834.727 1631.92 834.931 1649.09 835 1666.26 C 835.229 1701.12 836.008 1734.11 810.156 1760.39 C 765.011 1806.27 652.124 1794.04 638.392 1722.79 C 633.154 1695.6 633.966 1670.12 634.031 1642.99 L 634.171 1571.1 Z" stroke-linecap="round" />
</g>
		<g transform="matrix(0.5 0 0 0.5 108.655 312.9004)"  >
<path style="stroke: none; stroke-width: 1; stroke-dasharray: none; stroke-linecap: butt; stroke-dashoffset: 0; stroke-linejoin: miter; stroke-miterlimit: 4; fill: rgb(0,0,0); fill-rule: nonzero; opacity: 1;"  transform=" translate(-1239.5047, -1676.7006)" d="M 1233.72 1567.37 C 1262.08 1564.9 1298.64 1572.77 1323.04 1587.39 C 1319.04 1598.51 1312.77 1611.52 1307.09 1621.89 C 1285.19 1617.02 1270.77 1608.88 1246.66 1607.76 C 1207.53 1605.96 1178.61 1634.49 1228.52 1651.18 C 1258.44 1661.19 1293.91 1661.59 1318.31 1683.91 C 1335.89 1699.9 1335.88 1725.09 1327 1745.56 C 1310.57 1783.1 1265.2 1786 1229.99 1786.48 C 1197.27 1784.32 1174 1778.41 1146.16 1761.53 C 1148.96 1750.16 1158.73 1733.25 1164.62 1723.24 C 1194.98 1738.2 1216.45 1749.35 1252.32 1745.17 C 1265.12 1743.68 1274.77 1738.62 1282.54 1728.36 C 1277.46 1709.84 1265.34 1705.98 1248.38 1701.12 C 1215.67 1691.85 1155.77 1686.68 1151.94 1643.03 C 1147.12 1588.02 1190.54 1573.37 1233.72 1567.37 Z" stroke-linecap="round" />
</g>
		<g transform="matrix(0.5 0 0 0.5 308.0128 -250.2323)"  >
<path style="stroke: none; stroke-width: 1; stroke-dasharray: none; stroke-linecap: butt; stroke-dashoffset: 0; stroke-linejoin: miter; stroke-miterlimit: 4; fill: rgb(0,0,0); fill-rule: nonzero; opacity: 1;"  transform=" translate(-1638.2202, -550.4351)" d="M 1634.63 486.173 C 1670.18 484.188 1700.59 511.44 1702.49 546.992 C 1704.4 582.545 1677.07 612.89 1641.52 614.713 C 1606.07 616.531 1575.85 589.317 1573.95 553.879 C 1572.05 518.44 1599.2 488.153 1634.63 486.173 Z" stroke-linecap="round" />
</g>
		<g transform="matrix(0.5 0 0 0.5 326.3812 313.2901)"  >
<path style="stroke: none; stroke-width: 1; stroke-dasharray: none; stroke-linecap: butt; stroke-dashoffset: 0; stroke-linejoin: miter; stroke-miterlimit: 4; fill: rgb(0,0,0); fill-rule: nonzero; opacity: 1;"  transform=" translate(-1674.957, -1677.48)" d="M 1650.34 1571.98 C 1666.91 1572.27 1683.49 1572.27 1700.06 1571.97 L 1699.94 1782.9 L 1650.04 1782.99 C 1650.1 1712.94 1649.42 1641.95 1650.34 1571.98 Z" stroke-linecap="round" />
</g>
		<g transform="matrix(0.5 0 0 0.5 -70.451 31.3276)"  >
<path style="stroke: none; stroke-width: 1; stroke-dasharray: none; stroke-linecap: butt; stroke-dashoffset: 0; stroke-linejoin: miter; stroke-miterlimit: 4; fill: rgb(0,0,0); fill-rule: nonzero; opacity: 1;"  transform=" translate(-881.2926, -1113.555)" d="M 828.015 1067.08 C 839.645 1069.62 867.743 1096.61 879.658 1104.67 C 885.688 1109.54 893.235 1112.83 899.479 1117.25 C 910.716 1125.21 969.929 1143.1 933.909 1160.03 C 928.078 1158.33 919.282 1157.55 912.393 1154.32 C 880.029 1138.93 848.044 1117.88 822.987 1092.11 C 813.327 1082.18 816.25 1073.01 828.015 1067.08 Z" stroke-linecap="round" />
</g>
		<g transform="matrix(0.5 0 0 0.5 7.4934 -240.4156)"  >
<path style="stroke: none; stroke-width: 1; stroke-dasharray: none; stroke-linecap: butt; stroke-dashoffset: 0; stroke-linejoin: miter; stroke-miterlimit: 4; fill: rgb(0,0,0); fill-rule: nonzero; opacity: 1;"  transform=" translate(-1037.1814, -570.0686)" d="M 993.154 556.471 C 1009.82 555.015 1089.4 550.215 1095.71 572.722 C 1098.06 581.086 1087.04 584.732 1079.09 585.11 C 1069.74 585.096 1050.17 582.861 1039.88 582.302 C 1027.59 581.634 990.505 584.014 982.02 580.624 C 973.955 570.065 979.76 558.795 993.154 556.471 Z" stroke-linecap="round" />
</g>
		<g transform="matrix(0.5 0 0 0.5 -56.6374 -226.6121)"  >
<path style="stroke: none; stroke-width: 1; stroke-dasharray: none; stroke-linecap: butt; stroke-dashoffset: 0; stroke-linejoin: miter; stroke-miterlimit: 4; fill: rgb(0,0,0); fill-rule: nonzero; opacity: 1;"  transform=" translate(-908.9199, -597.6755)" d="M 939.882 568.387 C 947.373 568.969 951.58 571.859 955.37 578.647 C 958.062 583.468 954.718 588.704 950.15 590.959 C 931.712 600.061 912.676 607.782 894.937 618.328 C 889.288 621.679 883.049 625.045 876.777 626.964 C 870.466 626.692 863.932 625.097 861.916 618.339 C 858.744 607.708 874.833 597.611 882.461 593.002 C 899.517 582.695 920.653 573.372 939.882 568.387 Z" stroke-linecap="round" />
</g>
		<g transform="matrix(0.5 0 0 0.5 69.0486 -221.918)"  >
<path style="stroke: none; stroke-width: 1; stroke-dasharray: none; stroke-linecap: butt; stroke-dashoffset: 0; stroke-linejoin: miter; stroke-miterlimit: 4; fill: rgb(0,0,0); fill-rule: nonzero; opacity: 1;"  transform=" translate(-1160.2918, -607.0637)" d="M 1123.82 575.658 C 1141.96 574.523 1187.91 601.092 1199.91 615.705 C 1208.09 625.659 1206.73 631.855 1196.7 638.498 C 1185.63 638.869 1165.76 623.45 1155.25 617.839 C 1144.3 611.994 1132.77 606.501 1122.32 599.855 C 1109.68 591.822 1116.72 583.901 1123.82 575.658 Z" stroke-linecap="round" />
</g>
		<g transform="matrix(0.5 0 0 0.5 -118.9396 -18.6601)"  >
<path style="stroke: none; stroke-width: 1; stroke-dasharray: none; stroke-linecap: butt; stroke-dashoffset: 0; stroke-linejoin: miter; stroke-miterlimit: 4; fill: rgb(0,0,0); fill-rule: nonzero; opacity: 1;"  transform=" translate(-784.3155, -1013.5795)" d="M 762.458 967.939 C 765.716 967.98 773.412 968.849 775.095 971.794 C 787.941 994.266 799.465 1017.81 812.886 1040.07 C 817.4 1047.56 811.438 1054.81 805.794 1059.22 C 786.531 1057.88 773.163 1027.33 765.466 1012.22 C 760.283 1002.04 753.226 988.352 754.256 976.848 C 754.622 972.751 759.402 970.021 762.458 967.939 Z" stroke-linecap="round" />
</g>
		<g transform="matrix(0.5 0 0 0.5 -103.9949 -188.7945)"  >
<path style="stroke: none; stroke-width: 1; stroke-dasharray: none; stroke-linecap: butt; stroke-dashoffset: 0; stroke-linejoin: miter; stroke-miterlimit: 4; fill: rgb(0,0,0); fill-rule: nonzero; opacity: 1;"  transform=" translate(-814.2048, -673.3107)" d="M 831.94 631.931 C 846.387 634.233 856.911 642.795 844.62 654.379 C 829.991 668.165 809.607 704.545 796.002 714.687 C 745.228 715.259 818.975 641.844 831.94 631.931 Z" stroke-linecap="round" />
</g>
		<g transform="matrix(0.5 0 0 0.5 113.7615 -181.3991)"  >
<path style="stroke: none; stroke-width: 1; stroke-dasharray: none; stroke-linecap: butt; stroke-dashoffset: 0; stroke-linejoin: miter; stroke-miterlimit: 4; fill: rgb(0,0,0); fill-rule: nonzero; opacity: 1;"  transform=" translate(-1249.7176, -688.1015)" d="M 1228.19 644.912 C 1248.62 651.18 1266.14 684.486 1277.39 702.237 C 1286.21 716.162 1285.67 724.622 1270.46 731.291 C 1257.98 727.108 1249.66 706.917 1241.24 697.051 C 1237.17 690.923 1232.06 685.128 1228.05 678.994 C 1216.36 661.113 1208.74 658.42 1228.19 644.912 Z" stroke-linecap="round" />
</g>
		<g transform="matrix(0.5 0 0 0.5 -137.1877 -75.9631)"  >
<path style="stroke: none; stroke-width: 1; stroke-dasharray: none; stroke-linecap: butt; stroke-dashoffset: 0; stroke-linejoin: miter; stroke-miterlimit: 4; fill: rgb(0,0,0); fill-rule: nonzero; opacity: 1;"  transform=" translate(-747.8192, -898.9735)" d="M 737.524 851.12 C 743.996 850.927 748.338 850.098 753.7 853.721 C 757.923 859.567 761.738 923.714 764.379 935.188 C 765.424 939.731 760.559 944.202 757.087 947.027 C 743.284 947.387 740.031 942.511 737.216 928.901 C 733.884 912.788 725.173 861.549 737.524 851.12 Z" stroke-linecap="round" />
</g>
		<g transform="matrix(0.5 0 0 0.5 -131.8191 -135.7663)"  >
<path style="stroke: none; stroke-width: 1; stroke-dasharray: none; stroke-linecap: butt; stroke-dashoffset: 0; stroke-linejoin: miter; stroke-miterlimit: 4; fill: rgb(0,0,0); fill-rule: nonzero; opacity: 1;"  transform=" translate(-758.5563, -779.3672)" d="M 763.917 733.124 C 778.426 731.642 782.304 735.232 779.543 750.267 C 776.73 761.77 773.216 774.42 769.308 785.582 C 765.159 797.429 764.046 818.519 753.78 825.771 C 739.767 826.784 735.108 822.732 737.23 807.845 C 739.935 788.867 748.862 745.591 763.917 733.124 Z" stroke-linecap="round" />
</g>
		<g transform="matrix(0.5 0 0 0.5 144.9295 -98.4313)"  >
<path style="stroke: none; stroke-width: 1; stroke-dasharray: none; stroke-linecap: butt; stroke-dashoffset: 0; stroke-linejoin: miter; stroke-miterlimit: 4; fill: rgb(0,0,0); fill-rule: nonzero; opacity: 1;"  transform=" translate(-1312.0537, -854.0371)" d="M 1305.84 806.947 C 1325.25 806.988 1324.64 826.259 1325.85 841.231 C 1326.79 852.787 1326.79 864.872 1327.09 876.492 C 1321.24 882.169 1315.33 887.793 1309.37 893.363 C 1307.14 895.486 1301.46 901.376 1298.63 901.119 L 1298.16 899.896 C 1303.26 888.533 1299.29 859.183 1299.55 845.846 C 1299.84 831.437 1290.55 816.983 1305.84 806.947 Z" stroke-linecap="round" />
</g>
</g>
</g>
</svg>